<?xml version="1.0" encoding="utf-8"?>
<!-- Generator: Adobe Illustrator 24.2.3, SVG Export Plug-In . SVG Version: 6.00 Build 0)  -->
<svg version="1.1" id="Layer_1" xmlns="http://www.w3.org/2000/svg" xmlns:xlink="http://www.w3.org/1999/xlink" x="0px" y="0px"
	 viewBox="0 0 294.1 139.6" style="enable-background:new 0 0 294.1 139.6;" xml:space="preserve">
<style type="text/css">
	.st0{fill:#F2F2F2;stroke:#231F20;stroke-miterlimit:10;}
	.st1{font-family:'LIBRARY3AM';}
	.st2{font-size:60px;}
	.st3{fill:#F2F2F2;}
	.st4{font-size:46.4293px;}
	.st5{fill:none;stroke:#231F20;stroke-miterlimit:10;}
</style>
<path class="st0" d="M57.4,48.2c0-2.2-2-3.9-4.4-3.9c-2.4,0-4.4,1.8-4.4,3.9c0,2.2,2,3.9,4.4,3.9C55.4,52.1,57.4,50.4,57.4,48.2z"/>
<path class="st0" d="M55.2,55.8v4c3.2-0.5,6-2,7.9-4.1l-3.9-2C58.1,54.7,56.7,55.5,55.2,55.8z"/>
<path class="st0" d="M53,24.6c-14.5,0-26.3,10.6-26.3,23.6S38.4,71.8,53,71.8s26.3-10.6,26.3-23.6S67.5,24.6,53,24.6z M53,63.9
	c-9.7,0-17.5-7-17.5-15.7S43.3,32.5,53,32.5s17.5,7,17.5,15.7S62.6,63.9,53,63.9z"/>
<path class="st0" d="M61.4,46.1c0.2,0.7,0.3,1.4,0.3,2.1c0,0.7-0.1,1.4-0.3,2.1l3.9,2c0.5-1.3,0.8-2.7,0.8-4.1
	c0-1.4-0.3-2.8-0.8-4.1L61.4,46.1z"/>
<path class="st0" d="M44.2,48.2c0-0.7,0.1-1.4,0.3-2.1l-3.9-2c-0.5,1.3-0.8,2.7-0.8,4.1c0,1.4,0.3,2.8,0.8,4.1l3.9-2
	C44.3,49.6,44.2,48.9,44.2,48.2z"/>
<path class="st0" d="M63.1,40.7c-2-2.1-4.8-3.6-7.9-4.1v4c1.6,0.4,3,1.1,4.1,2.1L63.1,40.7z"/>
<path class="st0" d="M50.8,40.6v-4c-3.2,0.5-6,2-7.9,4.1l3.9,2C47.8,41.7,49.2,41,50.8,40.6z"/>
<path class="st0" d="M42.8,55.7c2,2.1,4.8,3.6,7.9,4.1v-4c-1.6-0.4-3-1.1-4.1-2.1L42.8,55.7z"/>
<text transform="matrix(1 0 0 1 -2.8824 71.7809)" class="st0 st1 st2">L  CKIN</text>
<text transform="matrix(1 0 0 1 35.4304 121.2395)" class="st0 st1 st2">FITness</text>
<g>
	<text transform="matrix(-2.851829e-03 0.98 -1 -2.780000e-03 35.3534 -1.6257)" class="st3 st1 st4">C</text>
	<text transform="matrix(-2.851829e-03 0.98 -1 -2.780000e-03 35.3534 -1.6257)" class="st5 st1 st4">C</text>
</g>
</svg>